<svg width="26" height="25" viewBox="0 0 26 25" fill="none" xmlns="http://www.w3.org/2000/svg">
<g clip-path="url(#clip0_1_11842)">
<path d="M9.00458 1.635C6.52881 2.45231 4.39371 4.0036 2.91289 6.061C1.43207 8.11841 0.683591 10.5735 0.777384 13.0656C0.871176 15.5577 1.8023 17.9556 3.43399 19.9069C5.06568 21.8582 7.31193 23.2602 9.84279 23.9069C11.8946 24.4107 14.0443 24.4328 16.1071 23.9713C17.9758 23.5719 19.7035 22.7175 21.1209 21.4918C22.5962 20.1771 23.667 18.5046 24.2183 16.6542C24.8174 14.642 24.9241 12.5258 24.5299 10.4682H13.0079V15.0165H19.6807C19.5473 15.742 19.2615 16.4343 18.8404 17.0522C18.4193 17.6701 17.8716 18.2007 17.2299 18.6125C16.4151 19.1254 15.4966 19.4705 14.5333 19.6257C13.5672 19.7966 12.5763 19.7966 11.6102 19.6257C10.631 19.433 9.70477 19.0484 8.89037 18.4964C7.58203 17.6151 6.59965 16.363 6.08341 14.9189C5.55844 13.4477 5.55844 11.8528 6.08341 10.3816C6.45088 9.35041 7.05836 8.41149 7.8605 7.63495C8.77846 6.72998 9.94062 6.0831 11.2195 5.76529C12.4983 5.44748 13.8445 5.47101 15.1102 5.83331C16.099 6.12214 17.0031 6.6268 17.7507 7.30705C18.5031 6.59474 19.2542 5.88059 20.004 5.1646C20.3911 4.77959 20.8131 4.41299 21.1945 4.01877C20.0535 3.00829 18.7141 2.22202 17.2532 1.705C14.5927 0.785738 11.6818 0.761034 9.00458 1.635Z" fill="#9747FF"/>
<path d="M9.00444 1.63492C11.6814 0.760358 14.5924 0.784412 17.253 1.70308C18.7142 2.22361 20.053 3.01367 21.1924 4.0279C20.8053 4.42212 20.3968 4.79056 20.0019 5.17373C19.2508 5.88726 18.5003 6.59834 17.7505 7.30696C17.003 6.62672 16.0988 6.12206 15.11 5.83323C13.8447 5.46966 12.4986 5.44476 11.2195 5.76128C9.94026 6.07779 8.77739 6.72348 7.85843 7.6275C7.05628 8.40404 6.44881 9.34296 6.08134 10.3742L2.06836 7.41749C3.50476 4.70685 5.9918 2.63342 9.00444 1.63492Z" fill="#E33629"/>
<path d="M1.00371 10.347C1.2194 9.32976 1.5775 8.34463 2.06842 7.41797L6.08139 10.382C5.55642 11.8532 5.55642 13.4481 6.08139 14.9193C4.74438 15.9018 3.40672 16.8892 2.06842 17.8815C0.839455 15.5536 0.464644 12.9012 1.00371 10.347Z" fill="#F8BD00"/>
<path d="M13.0087 10.4668H24.5307C24.9249 12.5244 24.8182 14.6405 24.2191 16.6528C23.6678 18.5032 22.597 20.1757 21.1217 21.4904C19.8267 20.5287 18.5258 19.5745 17.2307 18.6129C17.8728 18.2007 18.4208 17.6695 18.8419 17.051C19.2631 16.4324 19.5486 15.7394 19.6815 15.0133H13.0087C13.0067 13.499 13.0087 11.9829 13.0087 10.4668Z" fill="#587DBD"/>
<path d="M2.06641 17.8812C3.40471 16.8987 4.74237 15.9113 6.07938 14.9189C6.59665 16.3636 7.58044 17.6157 8.89021 18.4964C9.70714 19.0459 10.6354 19.4273 11.6159 19.6165C12.5819 19.7874 13.5729 19.7874 14.539 19.6165C15.5022 19.4613 16.4207 19.1162 17.2356 18.6033C18.5306 19.5649 19.8315 20.5191 21.1266 21.4808C19.7094 22.7071 17.9817 23.5622 16.1128 23.9622C14.05 24.4236 11.9003 24.4015 9.84844 23.8977C8.22564 23.4854 6.70984 22.7585 5.39603 21.7626C4.00545 20.712 2.86969 19.388 2.06641 17.8812Z" fill="#319F43"/>
</g>
<defs>
<clipPath id="clip0_1_11842">
<rect width="24.7786" height="23.5798" fill="white" transform="translate(0.373047 0.859375)"/>
</clipPath>
</defs>
</svg>
